<svg id="Layer_1" data-name="Layer 1" xmlns="http://www.w3.org/2000/svg" viewBox="0 0 234 60"><title>logo_reversed</title><path d="M58.55,42.41h12.7V39.74h-9.9V32.85h8.92V30.24H61.35V23.35h9.9V20.68H58.55ZM85.88,27.54H82.6l-3.49,5.25-3.67-5.25H72.28l5.13,7.32-5.25,7.56h3.28l3.61-5.5,3.67,5.5H86l-5.31-7.56Zm9.2-.49a6.49,6.49,0,0,0-3,.7A5.29,5.29,0,0,0,90,29.6h-.12V27.54H87.22V49H90V42.42l-.12-2.07H90a5.21,5.21,0,0,0,2.08,1.85,6.59,6.59,0,0,0,8-1.61,8,8,0,0,0,2.1-5.61,8.12,8.12,0,0,0-2.1-5.62A6.38,6.38,0,0,0,95.08,27.05ZM98,38.83a4.35,4.35,0,0,1-3.37,1.52,4.42,4.42,0,0,1-3.4-1.48A5.64,5.64,0,0,1,89.89,35a5.6,5.6,0,0,1,1.34-3.86,4.53,4.53,0,0,1,6.77,0A5.57,5.57,0,0,1,99.36,35,5.46,5.46,0,0,1,98,38.83Zm12.6-11.78a6.85,6.85,0,0,0-5.29,2.27A8.08,8.08,0,0,0,103.25,35a7.93,7.93,0,0,0,2.13,5.68,7.11,7.11,0,0,0,5.4,2.24,7.64,7.64,0,0,0,4-1.06,7.36,7.36,0,0,0,2.78-2.94l-2.49-1.22A4.7,4.7,0,0,1,107.56,39a4.86,4.86,0,0,1-1.46-3.52h11.7l0-.31a8.56,8.56,0,0,0-2-6A6.79,6.79,0,0,0,110.6,27.05Zm-4.28,6.14a4.56,4.56,0,0,1,1.5-2.61,4,4,0,0,1,2.72-1,4.41,4.41,0,0,1,3,1,3.71,3.71,0,0,1,1.26,2.57Zm21-6.14a5.58,5.58,0,0,0-2.75.73,5,5,0,0,0-2,1.82h-.12V27.54h-2.68V42.42h2.8V34.19A4.88,4.88,0,0,1,123.68,31a3.51,3.51,0,0,1,2.8-1.36c2.38,0,3.61,1.22,3.67,3.65v9.17h2.79V33.07a6.24,6.24,0,0,0-1.47-4.45A5.46,5.46,0,0,0,127.27,27.05Zm15.15,6.78-2.24-.58c-1.6-.37-2.4-1-2.4-1.82a1.57,1.57,0,0,1,.86-1.34,3.64,3.64,0,0,1,2-.55,4.28,4.28,0,0,1,2.14.54,3.07,3.07,0,0,1,1.38,1.47l2.49-1A5.09,5.09,0,0,0,144.38,28a7.57,7.57,0,0,0-7.81.28,3.88,3.88,0,0,0-1.65,3.27q0,3.09,4.34,4.19l2.55.64c1.46.44,2.19,1.14,2.19,2.09a1.64,1.64,0,0,1-.9,1.37,4.08,4.08,0,0,1-2.23.58,3.85,3.85,0,0,1-2.29-.75,4.63,4.63,0,0,1-1.6-2.08l-2.49,1.06a6.49,6.49,0,0,0,2.43,3.09,6.88,6.88,0,0,0,4,1.16,6.71,6.71,0,0,0,4.28-1.33,4,4,0,0,0,1.7-3.28C146.85,36,145.38,34.55,142.42,33.83Zm12.91-6.78A6.85,6.85,0,0,0,150,29.32,8,8,0,0,0,148,35a8,8,0,0,0,2.12,5.68,7.15,7.15,0,0,0,5.41,2.24,7.67,7.67,0,0,0,4-1.06,7.36,7.36,0,0,0,2.78-2.94l-2.49-1.22A4.7,4.7,0,0,1,152.29,39a4.86,4.86,0,0,1-1.46-3.52h11.69l0-.31a8.51,8.51,0,0,0-2-6A6.77,6.77,0,0,0,155.33,27.05ZM151,33.19a4.63,4.63,0,0,1,1.51-2.61,4,4,0,0,1,2.71-1,4.42,4.42,0,0,1,3.06,1,3.71,3.71,0,0,1,1.26,2.57Zm30.49.72h-.12l-7.56-13.23h-2.8V42.42h2.8V29.51l-.12-3.64h.12l6.8,11.93h1.64l6.8-11.93h.12l-.12,3.64V42.42h2.79V20.68h-2.79Zm18.83-6.86a6.88,6.88,0,0,0-6,2.92l2.46,1.55a4.28,4.28,0,0,1,3.71-2,4,4,0,0,1,2.7,1A3.17,3.17,0,0,1,204.36,33v.64a8.32,8.32,0,0,0-4.1-.91,7.38,7.38,0,0,0-4.66,1.37,4.43,4.43,0,0,0-1.74,3.67,4.67,4.67,0,0,0,1.65,3.65,6,6,0,0,0,4.11,1.46,5.33,5.33,0,0,0,4.62-2.56h.12v2.07H207V33.25a5.86,5.86,0,0,0-1.79-4.54A6.92,6.92,0,0,0,200.36,27.05ZM203,39.11a4.45,4.45,0,0,1-3.14,1.3,3.42,3.42,0,0,1-2.17-.72,2.25,2.25,0,0,1-.93-1.83,2.43,2.43,0,0,1,1.14-2,4.72,4.72,0,0,1,2.84-.82,5.71,5.71,0,0,1,3.64,1A4.1,4.1,0,0,1,203,39.11Zm13.27.86a2.82,2.82,0,0,1-.65.08,1.91,1.91,0,0,1-1.31-.53,2.75,2.75,0,0,1-.57-2V30.09h3.64V27.54h-3.64V23h-2.8v4.56h-2.61v2.55h2.61v8.32a4.17,4.17,0,0,0,1.23,3.13,4.24,4.24,0,0,0,3,1.12,7.61,7.61,0,0,0,2.56-.39l-.88-2.49A3.82,3.82,0,0,1,216.25,40ZM233,35.19a8.51,8.51,0,0,0-2-6,7.4,7.4,0,0,0-10.55.12A8,8,0,0,0,218.42,35a7.93,7.93,0,0,0,2.13,5.68A7.14,7.14,0,0,0,226,42.9a7.7,7.7,0,0,0,4-1.06,7.36,7.36,0,0,0,2.78-2.94l-2.49-1.22A4.7,4.7,0,0,1,222.74,39a4.86,4.86,0,0,1-1.46-3.52H233Zm-11.51-2a4.56,4.56,0,0,1,1.5-2.61,4.06,4.06,0,0,1,2.72-1,4.39,4.39,0,0,1,3,1A3.71,3.71,0,0,1,230,33.19Z" fill="#fff"/><path d="M24.62,3,1,16.63V43.91l4.77,2.63L6,19.6,29.59,5.87ZM43.27,13.9,19.65,27.53V54.8l4.77,2.63.25-26.93L48.24,16.76ZM31.21,34.18V40l13.28-7.74-5-2.87Zm0,11.85v5.81L44.49,44.1l-5-2.87ZM33.7,8.27,10.08,21.91V49.18l4.77,2.63.25-26.94L38.67,11.14Z" fill="#00e8db"/></svg>